<svg xmlns="http://www.w3.org/2000/svg" viewBox="0 0 400 220" font-family="Helvetica, Arial, sans-serif">
<rect x="0" y="0" width="400" height="220" rx="8" fill="#0a1420" stroke="#1c3c55" stroke-width="1"/>
<line x1="20" y1="0" x2="20" y2="220" stroke="#16283a" stroke-width="1"/>
<line x1="40" y1="0" x2="40" y2="220" stroke="#16283a" stroke-width="1"/>
<line x1="60" y1="0" x2="60" y2="220" stroke="#16283a" stroke-width="1"/>
<line x1="80" y1="0" x2="80" y2="220" stroke="#16283a" stroke-width="1"/>
<line x1="100" y1="0" x2="100" y2="220" stroke="#16283a" stroke-width="1"/>
<line x1="120" y1="0" x2="120" y2="220" stroke="#16283a" stroke-width="1"/>
<line x1="140" y1="0" x2="140" y2="220" stroke="#16283a" stroke-width="1"/>
<line x1="160" y1="0" x2="160" y2="220" stroke="#16283a" stroke-width="1"/>
<line x1="180" y1="0" x2="180" y2="220" stroke="#16283a" stroke-width="1"/>
<line x1="200" y1="0" x2="200" y2="220" stroke="#16283a" stroke-width="1"/>
<line x1="220" y1="0" x2="220" y2="220" stroke="#16283a" stroke-width="1"/>
<line x1="240" y1="0" x2="240" y2="220" stroke="#16283a" stroke-width="1"/>
<line x1="260" y1="0" x2="260" y2="220" stroke="#16283a" stroke-width="1"/>
<line x1="280" y1="0" x2="280" y2="220" stroke="#16283a" stroke-width="1"/>
<line x1="300" y1="0" x2="300" y2="220" stroke="#16283a" stroke-width="1"/>
<line x1="320" y1="0" x2="320" y2="220" stroke="#16283a" stroke-width="1"/>
<line x1="340" y1="0" x2="340" y2="220" stroke="#16283a" stroke-width="1"/>
<line x1="360" y1="0" x2="360" y2="220" stroke="#16283a" stroke-width="1"/>
<line x1="380" y1="0" x2="380" y2="220" stroke="#16283a" stroke-width="1"/>
<line x1="0" y1="20" x2="400" y2="20" stroke="#16283a" stroke-width="1"/>
<line x1="0" y1="40" x2="400" y2="40" stroke="#16283a" stroke-width="1"/>
<line x1="0" y1="60" x2="400" y2="60" stroke="#16283a" stroke-width="1"/>
<line x1="0" y1="80" x2="400" y2="80" stroke="#16283a" stroke-width="1"/>
<line x1="0" y1="100" x2="400" y2="100" stroke="#16283a" stroke-width="1"/>
<line x1="0" y1="120" x2="400" y2="120" stroke="#16283a" stroke-width="1"/>
<line x1="0" y1="140" x2="400" y2="140" stroke="#16283a" stroke-width="1"/>
<line x1="0" y1="160" x2="400" y2="160" stroke="#16283a" stroke-width="1"/>
<line x1="0" y1="180" x2="400" y2="180" stroke="#16283a" stroke-width="1"/>
<line x1="0" y1="200" x2="400" y2="200" stroke="#16283a" stroke-width="1"/>
<rect x="170" y="80" width="60" height="60" rx="4" fill="#ff6753" fill-opacity="0.22" stroke="#ff6753" stroke-width="1.5"/>
<text x="200" y="114" fill="#ffceb3" font-size="10" text-anchor="middle" letter-spacing="1">OBSTACLE</text>
<path d="M30,110 L54,110 L126.00003242492676,110 A33.99996757507324,33.99996757507324 0 0 1 160,143.99996757507324 L160,174.00003242492676 A33.99996757507324,33.99996757507324 0 0 0 193.99996757507324,208 L312.00003242492676,208 A33.99996757507324,33.99996757507324 0 0 0 346,174.00003242492676 L346,121.9999885559082 A11.999988555908203,11.999988555908203 0 0 1 357.9999885559082,110 L370,110" fill="none" stroke="#37a6d1" stroke-width="3" stroke-linecap="round"/>
<circle cx="30" cy="110" r="4" fill="#37a6d1"/>
<circle cx="370" cy="110" r="4" fill="#37a6d1"/>
</svg>